<?xml version="1.0" encoding="utf-8"?>
<!-- Generator: Adobe Illustrator 19.0.0, SVG Export Plug-In . SVG Version: 6.00 Build 0)  -->
<svg version="1.1" id="Capa_1" xmlns="http://www.w3.org/2000/svg" xmlns:xlink="http://www.w3.org/1999/xlink" x="0px" y="0px"
	 width="512px" height="512px" viewBox="-143 -6 512 512" style="enable-background:new -143 -6 512 512;" xml:space="preserve">
<style type="text/css">
	.st0{fill:#FFFFFF;}
</style>
<path class="st0" d="M-143,66.5v19.5v327.8v19.5h512v-19.5V86.1V66.5H-143z M169.5,254.8l-46.5,46.7c-5.6,5.2-14.5,5.2-19.9,0.2
	l-46.7-46.9l0.4-0.4L-111.9,83.6H338L169.1,254.4L169.5,254.8z M32.1,254.5l-158.1,152.1V95.7L32.1,254.5z M44.2,266.6L91.3,314
	c6.1,5.6,13.8,8.5,21.6,8.5c7.9,0,15.8-2.9,22-8.7l46.9-47.1l155.6,149.8h-449L44.2,266.6z M193.9,254.6L351.9,95.7v310.9
	L193.9,254.6z"/>
</svg>
