<?xml version="1.0" encoding="utf-8"?>
<!-- Generator: Adobe Illustrator 19.0.0, SVG Export Plug-In . SVG Version: 6.00 Build 0)  -->
<svg version="1.1" id="Capa_1" xmlns="http://www.w3.org/2000/svg" xmlns:xlink="http://www.w3.org/1999/xlink" x="0px" y="0px"
	 width="512px" height="512px" viewBox="-143 -6 512 512" style="enable-background:new -143 -6 512 512;" xml:space="preserve">
<style type="text/css">
	.st0{fill:#FFFFFF;}
</style>
<g>
	<path class="st0" d="M268.5,506c-21.3,0-47-5.3-75.3-16c-62-23.4-129.5-69.6-190-130.1c-60.5-60.5-106.8-128-130.2-190.1
		c-21.3-56.4-21.3-102.7-0.1-123.9c3-3,6.1-6.3,9.4-9.7C-98.4,15.9-76.6-7-47.6-6c20,0.8,39.3,13.2,59.1,37.9
		c58.5,72.8,32.1,98.7,1.6,128.8L7.7,166c-5,5-14.4,28.1,73.4,115.9c28.7,28.7,53.1,49.6,72.6,62.3c12.3,8,34.3,20.1,43.3,11.1
		l5.4-5.5c30-30.5,56-56.8,128.7,1.7c24.6,19.8,37,39.1,37.9,59.1c1.2,28.9-21.9,50.9-42.2,70.2c-3.4,3.2-6.6,6.3-9.7,9.3
		C306.5,500.7,289.7,506,268.5,506z M-49.7,11.2c-20.6,0-39.2,19.6-55.6,36.9c-3.3,3.5-6.5,6.9-9.7,10
		c-15.8,15.8-14.2,57.2,4.1,105.6c22.6,59.8,67.4,125.1,126.2,184c58.8,58.8,124.1,103.6,183.9,126.2c48.4,18.3,89.9,19.8,105.6,4.1
		c3.2-3.2,6.5-6.4,10-9.6c17.7-16.8,37.7-35.9,36.9-57c-0.6-14.5-11.2-30.1-31.4-46.4c-60.6-48.7-77.5-31.5-105.7-3l-5.5,5.6
		c-13.4,13.4-35.3,10.5-64.9-8.8c-20.5-13.4-45.9-35.1-75.4-64.6C-4,221.2-27.3,176.6-4.5,153.8l5.5-5.4
		c28.6-28.1,45.8-45.1-2.9-105.7c-16.3-20.2-31.9-30.8-46.4-31.4C-48.8,11.2-49.2,11.2-49.7,11.2z"/>
</g>
</svg>
